<?xml version="1.0" standalone="no"?><!DOCTYPE svg PUBLIC "-//W3C//DTD SVG 1.1//EN" "http://www.w3.org/Graphics/SVG/1.1/DTD/svg11.dtd"><svg class="icon" width="200px" height="200.00px" viewBox="0 0 1024 1024" version="1.1" xmlns="http://www.w3.org/2000/svg"><path d="M509 736q-15 0-24-9t-9-24V209l1-80-111 123-85 84q-9 10-23.5 10t-23.5-9.5q-9-9.5-9-23t10-24.5L484 39q11-11 25.5-11T534 39l249 250q11 11 11 24.5t-9.5 23Q775 346 761 346t-23-9l-86-85-110-125 1 82v494q0 15-9.5 24t-24.5 9z" fill="#666666" /></svg>