<?xml version="1.0" standalone="no"?><!DOCTYPE svg PUBLIC "-//W3C//DTD SVG 1.1//EN" "http://www.w3.org/Graphics/SVG/1.1/DTD/svg11.dtd"><svg class="icon" width="200px" height="200.00px" viewBox="0 0 1024 1024" version="1.1" xmlns="http://www.w3.org/2000/svg"><path d="M157 383q0-15 9.5-24t23.5-9h494l81 1-124-111-84-85q-9-9-9-23.5t9.5-23.5q9.5-9 23-9t24.5 10l250 249q11 11 11 25t-11 25L605 657q-11 11-24.5 11t-23-9.5q-9.5-9.5-9.5-24t9-23.5l84-85 125-110-82 1H190q-14 0-23.5-9.5T157 383z" fill="#666666" /></svg>