<?xml version="1.0" standalone="no"?><!DOCTYPE svg PUBLIC "-//W3C//DTD SVG 1.1//EN" "http://www.w3.org/Graphics/SVG/1.1/DTD/svg11.dtd"><svg class="icon" width="200px" height="200.00px" viewBox="0 0 1024 1024" version="1.1" xmlns="http://www.w3.org/2000/svg"><path d="M866 383q0 15-9.5 24.5T833 417H339l-81-1 124 110 84 85q9 9 9 23.5t-9.5 24q-9.5 9.5-23 9.5T418 657L168 408q-11-11-11-25t11-25l250-249q11-10 24.5-10t23 9q9.5 9 9.5 23.5t-9 23.5l-84 85-125 110h576q14 0 23.5 9.5T866 383z" fill="#666666" /></svg>