<?xml version="1.0" standalone="no"?><!DOCTYPE svg PUBLIC "-//W3C//DTD SVG 1.1//EN" "http://www.w3.org/Graphics/SVG/1.1/DTD/svg11.dtd"><svg class="icon" width="200px" height="200.00px" viewBox="0 0 1024 1024" version="1.1" xmlns="http://www.w3.org/2000/svg"><path d="M826 339q18 0 32 14t14 32.5q0 18.5-14 32.5t-33 14H186q-19 0-33-14t-14-32.5q0-18.5 14-33t33-14.5h640v1z m0 272q18 0 32 14t14 33q0 19-14 33t-33 14H186q-19 0-33-14t-14-33q0-19 14-33t33-14h640zM186 160q-19 0-33-14t-14-33q0-19 14-33t33-14h639q19 0 33 14t14 33q0 19-14 33t-33 14H186z" fill="#666666" /></svg>