<?xml version="1.0" standalone="no"?><!DOCTYPE svg PUBLIC "-//W3C//DTD SVG 1.1//EN" "http://www.w3.org/Graphics/SVG/1.1/DTD/svg11.dtd"><svg class="icon" width="200px" height="200.00px" viewBox="0 0 1024 1024" version="1.1" xmlns="http://www.w3.org/2000/svg"><path d="M712 45q49 0 90.5 24.5t66 66Q893 177 892 226v361q0 49-24 90.5t-65.5 66Q761 768 712 768H314q-49 0-90.5-24.5t-66-66Q133 636 133 587V226q0-49 24.5-90.5t66-66Q265 45 314 45h398z m-66 327q8-9 7-21.5t-10-21q-9-8.5-22-8.5t-22 9L493 440l-70-60q-10-7-22.5-5.5t-20.5 11q-8 9.5-7 22.5t11 22l92 79q10 7 21.5 5.5T517 505l127-130 2-3zM368 0q-13 0-22 9.5T337 32v102q1 12 10 20.5t21.5 8.5q12.5 0 22-9.5T400 131V29q-1-12-10-20.5T368 0z m285 0q-13 0-22.5 9.5T622 32v102q1 12 10 20.5t21.5 8.5q12.5 0 22-9.5T685 131V29q-1-12-10.5-20.5T653 0z" fill="#666666" /></svg>