<?xml version="1.0" standalone="no"?><!DOCTYPE svg PUBLIC "-//W3C//DTD SVG 1.1//EN" "http://www.w3.org/Graphics/SVG/1.1/DTD/svg11.dtd"><svg class="icon" width="200px" height="200.00px" viewBox="0 0 1024 1024" version="1.1" xmlns="http://www.w3.org/2000/svg"><path d="M233 710q-102 0-102-100V269q0-100 102-100h74q18 0 27-4.5t21-16.5l26-30q13-14 27-20 15-7 39-7h130q24 0 40 7 13 6 26 20l26 30q12 12 21 16.5t27 4.5h76q102 0 102 100v341q0 100-102 100H233z m559-52q25 0 38-13t13-38V272q0-25-13-38t-38-13h-88q-22 0-35.5-5T643 198l-26-29q-14-16-24.5-21t-32.5-5h-96q-22 0-32.5 5T407 169l-26 29q-12 13-25.5 18t-35.5 5h-86q-24 0-37.5 13T183 272v335q0 25 13.5 38t37.5 13h558z m-279-51q-48 0-89-24t-64.5-65Q336 477 336 428.5t23.5-89.5q23.5-41 64.5-64.5t89.5-23.5q48.5 0 89 23.5t64 64.5q23.5 41 23.5 89.5T666.5 518Q643 559 602 582.5T513 606v1z m234-258q-17 0-29-11.5T706 310v-1q0-16 12-28t28.5-12q16.5 0 28.5 12t12 28.5q0 16.5-12 28T747 349zM513 557q35 0 64.5-17.5T624 493q17-29 17-64v-1q0-34-17-63.5t-46.5-47Q548 300 513 300t-64.5 17.5Q419 335 402 364.5T385 429q0 35 17 64.5t46.5 46.5q29.5 17 64.5 17z" fill="#666666" /></svg>