<?xml version="1.0" standalone="no"?><!DOCTYPE svg PUBLIC "-//W3C//DTD SVG 1.1//EN" "http://www.w3.org/Graphics/SVG/1.1/DTD/svg11.dtd"><svg class="icon" width="200px" height="200.00px" viewBox="0 0 1024 1024" version="1.1" xmlns="http://www.w3.org/2000/svg"><path d="M232 714q-103 0-103-102V268q0-102 103-102h75q18 0 27-4t21-17l26-30q14-14 27-20 16-8 41-8h130q25 0 41 7 14 7 27 21l26 30q12 13 21 17t27 4h77q104 0 103 102v344q1 102-103 102H232z m283-105q49 0 90-24t65-65.5q24-41.5 24-90.5t-24-90.5Q646 297 605 273t-90-24q-49 0-90 24t-65 65.5Q336 380 336 429t24 90.5q24 41.5 65 65.5t90 24z m236-260q17 0 29-12t12-28v-1q0-16-12-28t-29-12q-17 0-29 12t-12 28.5q0 16.5 12 28.5t29 12zM515 559q-35 0-65-17.5T402.5 494Q385 464 385 429t17.5-65q17.5-30 47.5-47.5t65-17.5q35 0 65 17.5t47.5 47.5q17.5 30 17.5 65 0 36-17.5 65.5t-47.5 47Q550 559 515 559z" fill="#666666" /></svg>