<?xml version="1.0" standalone="no"?><!DOCTYPE svg PUBLIC "-//W3C//DTD SVG 1.1//EN" "http://www.w3.org/Graphics/SVG/1.1/DTD/svg11.dtd"><svg class="icon" width="200px" height="200.00px" viewBox="0 0 1024 1024" version="1.1" xmlns="http://www.w3.org/2000/svg"><path d="M110 70q0-11 7.5-18.5T135 44h122q25 0 35 9.5T305 84l7 44h565q14 0 22.5 7.5T908 156q0 4-1 13l-28 183q-6 38-26.5 59T795 432H356l6 37q2 16 11 25.5t24 9.5h397q11 0 18.5 7.5T820 530q0 11-7.5 18t-17.5 7H391q-37 0-57.5-20.5T307 476L252 96H135q-10 0-17.5-8T110 69v1z m252 598q0-24 16.5-40t39.5-16h1q23 0 39 16t16 40v1q0 23-16.5 39T418 724q-23 0-39.5-16.5T362 668z m323 0q0-24 16.5-40t40-16q23.5 0 40 16t16.5 39.5q0 23.5-16.5 40t-40 16.5q-23.5 0-40-16.5T685 668z" fill="#666666" /></svg>