<?xml version="1.0" standalone="no"?><!DOCTYPE svg PUBLIC "-//W3C//DTD SVG 1.1//EN" "http://www.w3.org/Graphics/SVG/1.1/DTD/svg11.dtd"><svg class="icon" width="200px" height="200.00px" viewBox="0 0 1024 1024" version="1.1" xmlns="http://www.w3.org/2000/svg"><path d="M390 556.11q-36 0-57-21t-26-59l-56-380H134q-10 0-17.5-8t-7.5-18.5q0-10.5 7.5-18.5t17.5-7h122q25 0 35.5 9t12.5 31l7 44h566q14 0 22.5 7.5t8.5 20.5q0 4-1 13l-28 183q-6 39-26.5 60t-57.5 21H356l5 36q2 16 11.5 25.5t23.5 9.5h399q10 0 17.5 7.5t7.5 18.5q0 11-7.5 18.5t-17.5 7.5H390z m-71-376l29 201h442q15 0 23.5-9t11.5-26l24-166H319z m99 545q-24 0-40.5-16.5t-16.5-40q0-23.5 16.5-40t40.5-16.5q23 0 39.5 16.5t16.5 39.5v1q0 23-16.5 39.5t-39.5 16.5z m323 0q-23 0-39.5-16.5t-16.5-40q0-23.5 16.5-40t40-16.5q23.5 0 40 16.5t16.5 40q0 23.5-16.5 40t-40.5 16.5z" fill="#666666" /></svg>