<?xml version="1.0" standalone="no"?><!DOCTYPE svg PUBLIC "-//W3C//DTD SVG 1.1//EN" "http://www.w3.org/Graphics/SVG/1.1/DTD/svg11.dtd"><svg class="icon" width="200px" height="200.00px" viewBox="0 0 1024 1024" version="1.1" xmlns="http://www.w3.org/2000/svg"><path d="M279 663q-13 0-20.5-8.5T251 631v-90h-51q-54 0-86-33t-32-88V116q0-55 32-85.5T200 0h424q53 0 83.5 28t34.5 76v12H525q-71 0-111.5 40T373 267v206q0 35 9 57 7 17 23 29l-91 84q-12 11-19.5 15.5T279 663z m500 43q-9 0-16.5-4.5T744 686L632 584h-99q-55 0-86.5-33T415 463V275q0-56 31-86t87-30h306q54 0 86 30.5t32 85.5v188q0 55-32 88t-86 33h-32v90q0 14-7.5 23t-20.5 9z" fill="#666666" /></svg>