<?xml version="1.0" standalone="no"?><!DOCTYPE svg PUBLIC "-//W3C//DTD SVG 1.1//EN" "http://www.w3.org/Graphics/SVG/1.1/DTD/svg11.dtd"><svg class="icon" width="200px" height="200.00px" viewBox="0 0 1024 1024" version="1.1" xmlns="http://www.w3.org/2000/svg"><path d="M336 741q-14 0-22.5-10t-8.5-26V604h-16q-78 0-119-41t-41-118V178q0-77 41-118t119-41h448q77 0 118 41t41 118v267q0 76-41 117.5T737 604H502L376 719q-13 12-21.5 17t-18.5 5z m57-415q0-21-15.5-36.5T341 274q-21 0-36.5 15.5t-15.5 36q0 20.5 15.5 36T341 377q21 0 36.5-15.5T393 326z m174 0q0-21-15.5-36.5T515 274q-21 0-36 15.5t-15 36q0 20.5 15.5 36t36 15.5q20.5 0 36-15.5T567 326z m174 0q0-21-15.5-36.5t-36-15.5q-20.5 0-36 15.5t-15.5 36q0 20.5 15.5 36T690 377q21 0 36-15.5t15-35.5z" fill="#666666" /></svg>