<?xml version="1.0" standalone="no"?><!DOCTYPE svg PUBLIC "-//W3C//DTD SVG 1.1//EN" "http://www.w3.org/Graphics/SVG/1.1/DTD/svg11.dtd"><svg class="icon" width="200px" height="200.00px" viewBox="0 0 1024 1024" version="1.1" xmlns="http://www.w3.org/2000/svg"><path d="M128 342.5q0 71 35 135 34 61 94 106 15 11 19 14 23 17 9 55-11 32-41 63-14 15-12 20t20 0q39-10 73-26 19-9 48-27 25-16 36-20 18-7 36-2 33 5 67 5 105 0 194-44 87-43 138-116 53-75 53-162.5t-53-162.5q-51-73-138-116-89-44-193.5-44T318 64.5q-87 43-138 116-52 75-52 162z" fill="#666666" /></svg>