<?xml version="1.0" standalone="no"?><!DOCTYPE svg PUBLIC "-//W3C//DTD SVG 1.1//EN" "http://www.w3.org/Graphics/SVG/1.1/DTD/svg11.dtd"><svg class="icon" width="200px" height="200.00px" viewBox="0 0 1024 1024" version="1.1" xmlns="http://www.w3.org/2000/svg"><path d="M345 741q-18 0-28-12t-10-32v-91h-17q-77 0-118-41t-41-117V182q0-77 41-118t118-41h447q78 0 118.5 41T896 182v265q0 77-40.5 118T737 606H515L395 713q-17 15-26 21-12 7-24 7z m125-174q10-10 18.5-13t23.5-3h225q103 0 103-104V182q0-103-103-103H291q-104 0-104 103v265q0 104 104 104h42q14 0 20 5.5t6 20.5v100l111-110z m-66-239q0 19-13.5 33t-32 14q-18.5 0-32.5-14t-14-32.5q0-18.5 13.5-32.5t32.5-14q19 0 33 14t14 32h-1z m158 0q0 19-13.5 33t-32 14q-18.5 0-32.5-14t-14-32.5q0-18.5 14-32.5t32.5-14q18.5 0 32 14t13.5 32z m159 0q0 19-14 33t-33 14q-19 0-32.5-14T628 328.5q0-18.5 13.5-32.5t32.5-14q19 0 33 14t14 32z" fill="#666666" /></svg>