<?xml version="1.0" standalone="no"?><!DOCTYPE svg PUBLIC "-//W3C//DTD SVG 1.1//EN" "http://www.w3.org/Graphics/SVG/1.1/DTD/svg11.dtd"><svg class="icon" width="200px" height="200.00px" viewBox="0 0 1024 1024" version="1.1" xmlns="http://www.w3.org/2000/svg"><path d="M512 0q104 0 194 53 87 51 138 137 52 90 52 194.5T844 578q-51 87-138 138-90 53-194.5 53T318 716q-87-51-138-138-52-89-52-193.5T180 190q51-86 138-137Q407 0 512 0z m207 286q4-4 3.5-9.5T718 266l-32-32q-4-4-10-4.5t-10 3.5L450 449l-92-91q-4-5-10-5t-11 5l-32 32q-4 4-4 10.5t4 10.5l134 134q5 4 10.5 4.5t9.5-3.5l260-260z" fill="#666666" /></svg>