<?xml version="1.0" standalone="no"?><!DOCTYPE svg PUBLIC "-//W3C//DTD SVG 1.1//EN" "http://www.w3.org/Graphics/SVG/1.1/DTD/svg11.dtd"><svg class="icon" width="200px" height="200.00px" viewBox="0 0 1024 1024" version="1.1" xmlns="http://www.w3.org/2000/svg"><path d="M509.034749 770.965251q103.783784 0 193.72973-53.374517 87.969112-50.409266 138.378378-138.378379 53.374517-88.957529 53.374518-193.72973t-53.374518-194.718146Q790.733591 103.783784 702.764479 52.3861q-88.957529-52.3861-193.72973-52.3861T314.316602 52.3861q-86.980695 51.397683-138.378378 138.378379-52.3861 89.945946-52.3861 194.718146t52.3861 193.72973q51.397683 87.969112 138.378378 138.378379 89.945946 53.374517 194.718147 53.374517z m0-725.49807q91.92278 0 170.996139 46.455599 77.096525 45.467181 122.563707 121.575289 46.455598 80.061776 46.455598 171.984556t-46.455598 170.996139q-45.467181 77.096525-122.563707 122.563707-79.073359 46.455598-170.996139 46.455598t-171.984556-46.455598q-76.108108-45.467181-121.57529-122.563707-46.455598-79.073359-46.455598-170.996139t46.455598-171.984556q45.467181-76.108108 121.57529-121.575289 80.061776-46.455598 171.984556-46.455599z m195.706564 247.104248q2.965251-3.953668 2.965251-9.389962t-4.942085-9.389961l-29.65251-29.65251q-3.953668-3.953668-9.389961-4.447876T654.332046 243.150579L450.718147 446.764479l-86.980695-85.992278q-3.953668-4.942085-9.88417-4.942085t-9.88417 4.942085l-29.65251 29.652509q-4.942085 3.953668-4.942085 9.88417t4.942085 9.88417l125.528958 126.517375q4.942085 3.953668 10.378378 4.447876t9.389962-3.459459l245.127413-245.127413z" fill="#666666" /></svg>