<?xml version="1.0" standalone="no"?><!DOCTYPE svg PUBLIC "-//W3C//DTD SVG 1.1//EN" "http://www.w3.org/Graphics/SVG/1.1/DTD/svg11.dtd"><svg class="icon" width="200px" height="200.00px" viewBox="0 0 1024 1024" version="1.1" xmlns="http://www.w3.org/2000/svg"><path d="M512 768q-103 0-192-52-87-52-138-139-53-89-53-192t53-193q51-87 137-138Q409 1 512 1t193 53q87 51 138 138 53 90 53 193t-53 192q-51 87-138 139-90 52-192 52h-1zM377 552q14 0 23-10l112-113 113 113q9 10 22 10t22.5-9.5Q679 533 679 520t-10-23L557 385l113-113q9-9 9-22t-9.5-22.5q-9.5-9.5-22-9.5T626 228L512 341 399 229q-8-10-21.5-10t-22.5 9q-9 9-9 22.5t9 21.5l112 113-112 113q-10 9-10 22t9.5 22.5Q364 552 377 552z" fill="#666666" /></svg>