<?xml version="1.0" standalone="no"?><!DOCTYPE svg PUBLIC "-//W3C//DTD SVG 1.1//EN" "http://www.w3.org/Graphics/SVG/1.1/DTD/svg11.dtd"><svg class="icon" width="200px" height="200.00px" viewBox="0 0 1024 1024" version="1.1" xmlns="http://www.w3.org/2000/svg"><path d="M451 384L206 139q-12-12-12-30.5T206 78q12-12 30-12t31 12l245 245L757 78q12-12 30-12t30.5 12Q830 90 830 108.5T817 139L573 384l244 245q13 12 13 30t-12.5 30.5Q805 702 787 702t-30-12L512 444 267 690q-13 12-31 12t-30-12.5Q194 677 194 659t12-30l245-245z" fill="#666666" /></svg>