<?xml version="1.0" standalone="no"?><!DOCTYPE svg PUBLIC "-//W3C//DTD SVG 1.1//EN" "http://www.w3.org/Graphics/SVG/1.1/DTD/svg11.dtd"><svg class="icon" width="200px" height="200.00px" viewBox="0 0 1024 1024" version="1.1" xmlns="http://www.w3.org/2000/svg"><path d="M512 768.499025q-103.797271 0-192.623782-52.896686-87.82846-50.900585-138.729045-138.729045-52.896686-88.826511-52.896686-192.124756T180.647173 191.625731q50.900585-87.82846 137.730995-138.729045Q408.202729 0 511.500975 0T704.623782 52.896686q86.830409 51.898635 138.729045 138.729045 52.896686 89.824561 52.896686 193.122807T843.352827 576.873294q-50.900585 87.82846-138.729045 138.729045-89.824561 52.896686-192.623782 52.896686z m0-63.875243q87.82846 0 161.684211-43.91423 72.8577-41.918129 114.775828-114.775829 43.91423-73.85575 43.91423-161.185185T788.460039 222.565302q-42.916179-72.8577-114.775828-114.775828-74.853801-43.91423-162.183236-43.91423T349.317739 107.789474q-71.859649 41.918129-113.777778 114.775828-43.91423 73.85575-43.91423 161.684211t43.91423 161.68421q41.918129 72.8577 114.775828 114.775829 73.85575 43.91423 161.684211 43.91423zM383.251462 543.937622q-12.974659 0-21.45809-8.982456t-8.48343-21.957115q0-12.974659 8.982456-20.959065l106.791423-106.791423-106.791423-107.789473q-8.982456-7.984405-8.982456-20.959065t8.48343-21.458089q8.483431-8.483431 20.959065-8.483431t21.458089 8.982456l107.789474 106.791423 107.789474-106.791423q8.982456-9.980507 20.959064-9.980507h0.998051q11.976608 0 20.460039 8.982456t8.48343 20.959065q0 11.976608-8.982456 21.957115L554.916179 385.247563l106.791423 106.791423q8.982456 8.982456 8.982456 21.45809t-8.982456 21.45809q-8.982456 8.982456-21.458089 8.982456t-21.45809-8.982456L512 427.165692 404.210526 534.955166q-7.984405 8.982456-20.959064 8.982456z" fill="#666666" /></svg>