<?xml version="1.0" standalone="no"?><!DOCTYPE svg PUBLIC "-//W3C//DTD SVG 1.1//EN" "http://www.w3.org/Graphics/SVG/1.1/DTD/svg11.dtd"><svg class="icon" width="200px" height="200.00px" viewBox="0 0 1024 1024" version="1.1" xmlns="http://www.w3.org/2000/svg"><path d="M619 704h136q56-7 103-39t74-81q27-49 27-107t-26-107.5q-26-49.5-70.5-81T764 250q-18-52-57-93t-91.5-64.5Q563 69 506 69q-69 0-129 32-58 30-96.5 84T234 305q-60 20-98 74T98 500q0 55 27 102t74 74q47 27 103 27h136l181 1zM493 336l-1-71h71l-1 237 67-77 46 44-145 159-151-159 41-42 72 75 1-166z" fill="#666666" /></svg>