<?xml version="1.0" standalone="no"?><!DOCTYPE svg PUBLIC "-//W3C//DTD SVG 1.1//EN" "http://www.w3.org/Graphics/SVG/1.1/DTD/svg11.dtd"><svg class="icon" width="200px" height="200.00px" viewBox="0 0 1024 1024" version="1.1" xmlns="http://www.w3.org/2000/svg"><path d="M561 633l1 71h-71l1-236-67 76-46-44 144-158 152 158-42 43-71-75-1 165z m203-382q54 7 98.5 38.5t70 81Q958 420 958 477.5t-27 107q-27 49.5-73.5 81T755 704H619v-70h136q30-5 57-30 25-23 40.5-57.5T868 478q0-40-15.5-77.5T810 340q-29-25-66-25-18 0-45 9v-9q0-49-28-90-27-39-71.5-61.5t-94-22.5q-49.5 0-95.5 23.5T337 228q-29 42-29 91 0 9 2 24.5t2 24.5q-9-4-27-4-31 0-58 21-26 20-42 52t-16 63q0 31 20 62t51 51q31 20 62 20h136v71H302q-56 0-102.5-27.5t-74-74Q98 556 98 500q0-66 38.5-120t97.5-74q9-66 47-119.5t96-84.5q60-32 129-32 57 0 109.5 23.5T707 158q39 41 57 93z" fill="#666666" /></svg>