<?xml version="1.0" standalone="no"?><!DOCTYPE svg PUBLIC "-//W3C//DTD SVG 1.1//EN" "http://www.w3.org/Graphics/SVG/1.1/DTD/svg11.dtd"><svg class="icon" width="200px" height="200.00px" viewBox="0 0 1024 1024" version="1.1" xmlns="http://www.w3.org/2000/svg"><path d="M512.999024 767.750291q-102.899493 0-192.811671-52.948282-86.915106-50.950234-137.865341-137.865341-52.948283-89.912178-52.948283-192.811671t51.949259-192.811672q51.949259-86.915106 138.864365-138.864364Q409.100507-0.499322 512.499512 0.00019T704.811672 52.448961q87.91413 51.949259 138.864364 138.864364 52.948283 89.912178 52.948283 192.811672t-52.948283 192.811671q-50.950234 86.915106-137.86534 137.865341-89.912178 52.948283-192.811672 52.948282z m0-255.750196q80.920961 0 147.855583 25.974629 59.941452 23.976581 90.911202 59.941453 38.961944-42.958041 59.941453-97.904373t20.979508-115.886807q0-87.91413-43.957065-161.841922-41.959017-72.928767-114.887784-114.887783-73.927791-43.957065-161.342409-43.957065t-161.342409 43.957065q-71.929743 41.959017-114.887784 114.887783-42.958041 73.927791-42.95804 161.841922 0 59.941452 21.47902 114.887783t59.44194 98.903397q30.96975-36.963896 90.911203-59.941453 66.934622-25.974629 147.855582-25.974629z m0-63.937549q-35.964871 0-65.436085-18.481948T401.108313 378.630364q-16.983411-32.468287-16.983411-72.429255-0.999024-36.963896 16.483899-68.93267t46.954138-50.950235q29.471214-18.98146 64.936573-18.98146t64.936573 18.98146q29.471214 18.98146 46.954138 50.950235t17.482924 68.93267q0 39.960968-16.983412 72.429255t-46.454625 50.950234Q548.963896 448.062546 512.999024 448.062546z" fill="#666666" /></svg>