<?xml version="1.0" standalone="no"?><!DOCTYPE svg PUBLIC "-//W3C//DTD SVG 1.1//EN" "http://www.w3.org/Graphics/SVG/1.1/DTD/svg11.dtd"><svg class="icon" width="200px" height="200.00px" viewBox="0 0 1024 1024" version="1.1" xmlns="http://www.w3.org/2000/svg"><path d="M304 320.52q-9-10-9-24t9.5-23.5q9.5-9.5 23.5-9.5t23 10l128 127v-358q0-14 9.5-24t23.5-9.5q14 0.5 23.5 10t9.5 23.5v358l128-127q9-10 23-10t23.5 9.5q9.5 9.5 9.5 23.5t-9 24l-166 165q-17 18-42 18t-42-18l-166-165z m454-224q37 0 69 19t50.5 50.5q18.5 31.5 18.5 69.5v386q0 37-18.5 69t-50.5 50.5q-32 18.5-69 18.5H266q-37 0-69-18.5t-50.5-50.5q-18.5-32-18.5-69v-386q0-38 18.5-69.5t50.5-50.5q32-19 69-19 14 0 24 10t10 23.5q0 13.5-10 23.5t-24 10q-29 0-50.5 21t-21.5 51v386q0 30 21.5 51t50.5 21h492q29 0 50.5-21t21.5-51v-386q0-30-21-51t-51-21q-14 0-23.5-10t-9.5-23.5q0-13.5 9.5-23.5t23.5-10z" fill="#666666" /></svg>