<?xml version="1.0" standalone="no"?><!DOCTYPE svg PUBLIC "-//W3C//DTD SVG 1.1//EN" "http://www.w3.org/Graphics/SVG/1.1/DTD/svg11.dtd"><svg class="icon" width="200px" height="200.00px" viewBox="0 0 1024 1024" version="1.1" xmlns="http://www.w3.org/2000/svg"><path d="M228 696q-114 0-114-112V185q0-55 26.5-83.5T217 73h582q113 0 113 112v399q0 55-26.5 83.5T809 696H228z m242-293q22 22 43.5 22t43.5-22l273-269q-12-5-29-5H226q-17 0-29 5l273 269zM170 590l207-205-208-204v403l1 6z m687-407L650 385l207 204V183z m-56 458q16 0 27-5L612 422l-23 24q-36 35-75.5 35T439 446l-24-24-216 214q11 5 27 5h575z" fill="#666666" /></svg>