<?xml version="1.0" standalone="no"?><!DOCTYPE svg PUBLIC "-//W3C//DTD SVG 1.1//EN" "http://www.w3.org/Graphics/SVG/1.1/DTD/svg11.dtd"><svg class="icon" width="200px" height="200.00px" viewBox="0 0 1024 1024" version="1.1" xmlns="http://www.w3.org/2000/svg"><path d="M512 74q-226 0-406 282-8 13-8 28t9 27q179 283 405 283t406-283q8-12 8-27t-8-28Q738 74 512 74z m0 124q51 0 93.5 25t67.5 67.5q25 42.5 25 93T673 477q-25 43-67.5 68T512 570q-51 0-93.5-25T351 477q-25-43-25-93.5t25-93q25-42.5 67.5-67.5t93.5-25z m0 310q-34 0-62.5-16.5t-45-45Q388 418 388 384t16.5-62.5q16.5-28.5 45-45T512 260q34 0 62.5 16.5t45 45Q636 350 636 384t-16.5 62.5q-16.5 28.5-45 45T512 508z" fill="#666666" /></svg>