<?xml version="1.0" standalone="no"?><!DOCTYPE svg PUBLIC "-//W3C//DTD SVG 1.1//EN" "http://www.w3.org/Graphics/SVG/1.1/DTD/svg11.dtd"><svg class="icon" width="200px" height="200.00px" viewBox="0 0 1024 1024" version="1.1" xmlns="http://www.w3.org/2000/svg"><path d="M907 391q12 23 0 47-131 276-395 276-99 0-180-39l112-112q30 13 64 13 44 0 81-22t59-59q22-37 22-81 0-34-13-64l130-130q70 64 120 170l1 1h-1zM849 85q2 2 2 5.5t-2 5.5L194 751q-2 2-5 2t-6-2l-39-39q-2-2-2-5.5t2-5.5l93-92q-70-65-120-171-11-24 0-47 131-277 395-277 99 0 180 40L799 46q2-2 5.5-2t5.5 2l39 39zM578 268q-33-16-70-16-44 0-81 22t-58.5 59Q347 370 347 414q0 37 15 69l216-215z" fill="#666666" /></svg>