<?xml version="1.0" standalone="no"?><!DOCTYPE svg PUBLIC "-//W3C//DTD SVG 1.1//EN" "http://www.w3.org/Graphics/SVG/1.1/DTD/svg11.dtd"><svg class="icon" width="200px" height="200.00px" viewBox="0 0 1024 1024" version="1.1" xmlns="http://www.w3.org/2000/svg"><path d="M914 392q6 11 6 24t-6 24Q781 720 513 720q-100 0-182-40l51-51q59 24 131 24 113 0 196.5-58.5T851 416q-45-94-106-150l47-47q71 66 122 173zM855 82q2 3 2 6t-2 5L190 757q-2 2-5 2t-5-2l-40-39q-2-2-2-5.5t2-5.5l94-94q-71-66-122-173-11-24 0-48 133-280 401-280 101 0 183 40L805 43q2-2 5-2t5 2l40 39zM533 314q-23-5-47 0-28 7-48 26t-28 45.5q-8 26.5-2 54.5l125-126z m112-111q-60-24-132-24-113 0-196.5 58.5T175 416q46 94 107 150l79-80q-15-33-15-70t15-70q19-40 55.5-65t80-28.5Q540 249 580 268l65-65zM510 520q9 0 17-1 28-5 49.5-23t31-44q9.5-26 5.5-54l47-47q14 31 14 65t-14 65q-17 41-52.5 67t-79 31q-43.5 5-83.5-13l47-47q9 1 18 1z" fill="#666666" /></svg>