<?xml version="1.0" standalone="no"?><!DOCTYPE svg PUBLIC "-//W3C//DTD SVG 1.1//EN" "http://www.w3.org/Graphics/SVG/1.1/DTD/svg11.dtd"><svg class="icon" width="200px" height="200.00px" viewBox="0 0 1024 1024" version="1.1" xmlns="http://www.w3.org/2000/svg"><path d="M513 694q226 0 406-283 8-13 8-27.5t-8-27.5Q739 73 512.5 73T106 356q-8 13-8 28t8 27q180 283 407 283z m0-559q190 0 349 249-159 248-349 248T163 384q160-249 350-249z m0 394q39 0 73-19.5t53.5-53q19.5-33.5 19.5-73T639.5 311Q620 278 586 258.5T512.5 239q-39.5 0-73 19.5T386 311q-20 33-20 72.5t20 73q20 33.5 53.5 53T513 529z m0-63q-35 0-59.5-24T429 383.5q0-34.5 24.5-58.5t59-24q34.5 0 59 24t24.5 58.5q0 34.5-24.5 58.5T513 466z" fill="#666666" /></svg>