<?xml version="1.0" standalone="no"?><!DOCTYPE svg PUBLIC "-//W3C//DTD SVG 1.1//EN" "http://www.w3.org/Graphics/SVG/1.1/DTD/svg11.dtd"><svg class="icon" width="200px" height="200.00px" viewBox="0 0 1024 1024" version="1.1" xmlns="http://www.w3.org/2000/svg"><path d="M333 521h20q-6 25-10 54t-4 48q1 64 29.5 103.5T442 766q49-1 75.5-31t26.5-91q0-40 22.5-78t58.5-61q39-25 82-24h21q17-1 28.5-13t12.5-28l-1-367q0-17-12-28.5T727 33H319q-41 0-75 28t-41 69l-44 248q-7 38 7 71.5t44 52.5q30 19 70 19h54-1z m476-61q0 9 6 15t14 6h41q8 0 14-6t6-15V53q0-9-6-15t-15-6h-40q-9 0-15 6t-6 15l1 407z" fill="#666666" /></svg>