<?xml version="1.0" standalone="no"?><!DOCTYPE svg PUBLIC "-//W3C//DTD SVG 1.1//EN" "http://www.w3.org/Graphics/SVG/1.1/DTD/svg11.dtd"><svg class="icon" width="200px" height="200.00px" viewBox="0 0 1024 1024" version="1.1" xmlns="http://www.w3.org/2000/svg"><path d="M350 34.82q-23 0-42 13t-26 34l-111 256q-11 26-9 55t17.5 53q15.5 24 40.5 38t53 14h102q-18 43-21.5 97.5t9.5 94.5q13 40 38.5 60t59.5 18h8q43 0 74.5-31.5t31.5-76.5v-42q0-25 9-47.5t26-39.5q17-17 39-26.5t46-9.5h136q26 0 44-18.5t19-45.5v-338q-1-24-17.5-41t-39.5-17h-99q-25 0-42 17.5t-17 43.5v338q-32 2-60.5 16t-51.5 37q-26 26-40 60t-13 71v43q-1 18-14 31.5t-31 13.5h-9q-11 1-19-3-13-8-20-31-10-31-7-72 2-36 13-67.5t24-40.5q9-5 12.5-15t0.5-19.5q-3-9.5-11-15.5t-18-6H273q-13 0-24-6.5t-18-17.5q-7-11-8-24t4-25l111-257q1-4 4.5-6.5t7.5-2.5h257q13 0 22-9t9-22q0-13-9-22t-21-9H350z m482 62l-1 336h-91v-336h93-1z" fill="#666666" /></svg>