<?xml version="1.0" standalone="no"?><!DOCTYPE svg PUBLIC "-//W3C//DTD SVG 1.1//EN" "http://www.w3.org/Graphics/SVG/1.1/DTD/svg11.dtd"><svg class="icon" width="200px" height="200.00px" viewBox="0 0 1024 1024" version="1.1" xmlns="http://www.w3.org/2000/svg"><path d="M693 277q6-24 10-53.5t4-48.5q-1-64-29.5-103.5T605 32q-49 1-75.5 31T503 154q0 40-22.5 78T421 293q-39 25-81 24l-22 1q-17 0-28.5 12T278 358l1 367q0 17 12 29t29 12l408-1q41 0 74.5-28t41.5-69l44-247q7-39-7-72.5T836.5 296Q806 277 767 277h-74z m-455 61q0-9-6.5-15t-14.5-6h-40q-9 0-15 6t-6 15v407q1 9 7 15t14 6h41q8 0 14-6t6-15V338z" fill="#666666" /></svg>