<?xml version="1.0" standalone="no"?><!DOCTYPE svg PUBLIC "-//W3C//DTD SVG 1.1//EN" "http://www.w3.org/Graphics/SVG/1.1/DTD/svg11.dtd"><svg class="icon" width="200px" height="200.00px" viewBox="0 0 1024 1024" version="1.1" xmlns="http://www.w3.org/2000/svg"><path d="M705 768.18q23 0 42-13.5t26-33.5l111-256q11-26 9-55t-17.5-53q-15.5-24-40.5-38t-53-14H680q18-43 21.5-97.5t-9.5-94.5q-13-40-38.5-60.5T594 34.18h-8q-43 0-74.5 31.5t-31.5 76.5v43q0 24-9 46.5t-26 40q-17 17.5-39 27t-46 9.5H224q-26 0-44 18.5t-18 44.5v339q0 24 16.5 41t39.5 17h99q25 0 42-18t17-43v-338q32-3 60.5-16.5t51.5-36.5q26-26 40-60t14-71v-43q0-19 13-32t31-13l9-1q11 0 19 4 13 8 20 31 10 31 7 72-2 36-13 67.5t-24 39.5q-9 6-12.5 15.5t-0.5 19.5q3 10 11 16t18 6h162q13 0 24 6.5t18 17.5q7 11 8 24t-4 25l-111 257q-1 4-4.5 6.5t-7.5 1.5H447q-12 1-21 10t-9 21.5q0 12.5 9 22t21 9.5h258z m-483-63l2-335h91v336h-93v-1z" fill="#666666" /></svg>