<?xml version="1.0" standalone="no"?><!DOCTYPE svg PUBLIC "-//W3C//DTD SVG 1.1//EN" "http://www.w3.org/Graphics/SVG/1.1/DTD/svg11.dtd"><svg class="icon" width="200px" height="200.00px" viewBox="0 0 1024 1024" version="1.1" xmlns="http://www.w3.org/2000/svg"><path d="M513 768q-103 0-193-53-87-51-138-138-53-90-53-193t52-193q52-87 139-138Q409 0 512.5 0T705 53q88 51 139 138 53 90 53 193t-53 193q-51 87-138 138-90 53-193 53z m0-64q87 0 162-43 72-42 115-115 43-74 43-161.5T789 222q-42-72-115-115-74-43-161.5-43T351 107q-72 43-115 115-43 75-43 162.5T237 546q42 73 114 115 74 43 162 43z m-8-242q-30 0-30-30v-5q0-25 13-44 11-15 34-31 28-19 37-29 12-14 12-32 0-22-15.5-35T514 243q-36 0-55 33l-7 8q-7 10-12 13-7 5-17.5 5t-18.5-7.5q-8-7.5-8-18.5 0-8 3-19 8-28 38-46 33-19 80-19 50 0 84 24 35 27 35 72 0 31-17 53-13 17-45 38-21 14-29.5 25.5T536 431v4q0 12-8.5 19.5T505 462z m-1 113q-16 0-28-11.5t-12-28q0-16.5 11.5-28T504 496q17 0 29 11.5t12 28q0 16.5-12 28T504 575z" fill="#666666" /></svg>