<?xml version="1.0" standalone="no"?><!DOCTYPE svg PUBLIC "-//W3C//DTD SVG 1.1//EN" "http://www.w3.org/Graphics/SVG/1.1/DTD/svg11.dtd"><svg class="icon" width="200px" height="200.00px" viewBox="0 0 1024 1024" version="1.1" xmlns="http://www.w3.org/2000/svg"><path d="M511.002921 767.75073q-103.696203 0-192.436222-52.84518-87.742941-50.851022-138.593963-138.593963-52.84518-88.740019-52.84518-191.937682T179.972736 191.439143q50.851022-86.745862 137.596884-138.593963Q407.306719 0 510.504382 0T703.439143 52.84518q86.745862 51.848101 138.593963 138.593963 52.84518 89.737098 52.84518 192.436222t-52.84518 192.436222q-51.848101 87.742941-138.593963 138.593963-89.737098 52.84518-192.436222 52.84518z m-6.979552-302.114897q13.959104 0 22.434275-7.976631t8.47517-19.941578v-4.985394q0-15.953262 9.970789-27.918209 8.97371-10.967868 30.909445-25.92405 33.900682-22.932814 46.862707-39.883155 18.944499-23.929893 18.944498-56.833496 0-46.862707-37.888997-74.780915-34.89776-24.926972-87.742941-24.926972-48.856865 0-83.754625 19.941578-31.906524 18.944499-39.883154 47.859785-2.991237 10.967868-2.991237 19.941578 0 11.964946 7.976631 19.443038t19.443038 7.478091q11.466407 0 19.443038-4.985394 4.985394-3.988315 12.962025-13.959104l5.982473-7.976631q8.97371-15.953262 23.929893-25.425511t33.900682-9.47225q26.92113 0 43.372931 13.959105t16.451801 36.891918q0 18.944499-12.962025 32.903603-8.97371 10.967868-37.888997 30.909445-24.926972 16.950341-35.89484 32.903602-13.959104 19.941577-13.959104 46.862707v4.985395q0 30.909445 31.906524 30.909445z m0.997079 112.669912q16.950341 0 29.413827-11.466407t12.463485-28.915287q0-17.44888-12.463485-28.915288T505.020448 497.542356q-16.950341 0-29.413827 11.964947T463.143135 538.42259q0 16.950341 12.463486 28.416748T505.020448 578.305745z" fill="#666666" /></svg>