<?xml version="1.0" standalone="no"?><!DOCTYPE svg PUBLIC "-//W3C//DTD SVG 1.1//EN" "http://www.w3.org/Graphics/SVG/1.1/DTD/svg11.dtd"><svg class="icon" width="200px" height="200.00px" viewBox="0 0 1024 1024" version="1.1" xmlns="http://www.w3.org/2000/svg"><path d="M231 682q-102 0-102-101V183q0-101 102-101h564q102 0 102 101v398q0 101-102 101H231z m614-137V186q0-25-13.5-38T794 135H232q-25 0-38 13t-13 38v359l98-88q20-18 42-18t43 19l61 54 147-131q22-20 48.5-20t49.5 20l175 164zM372 385q-32 0-54.5-22.5T295 308q0-32 22.5-54.5t54-22.5q31.5 0 54 22.5T448 308q0 32-22.5 54.5T371 385h1z" fill="#666666" /></svg>