<?xml version="1.0" standalone="no"?><!DOCTYPE svg PUBLIC "-//W3C//DTD SVG 1.1//EN" "http://www.w3.org/Graphics/SVG/1.1/DTD/svg11.dtd"><svg class="icon" width="200px" height="200.00px" viewBox="0 0 1024 1024" version="1.1" xmlns="http://www.w3.org/2000/svg"><path d="M228 559h-15q-93 0-93-91V156q0-92 93-92h450q93 0 93 92v7H357q-64 0-96.5 32.5T228 291v268z m133 143q-92 0-93-92V295q1-91 94-91h449q93 0 93 91v315q0 92-93 92H361z m114-252q28 0 48.5-20.5t20-48.5q-0.5-28-20.5-48.5T475 312q-28 0-48.5 20.5T406 381q0 28 20.5 48.5T475 450z m339 204q20 0 31-10.5t11-31.5v-61l-76-72q-28-26-42-36-20-13-37.5-13T663 443q-12 8-41 35l-99 88-35-31q-21-19-30-25-15-9-27.5-9t-26.5 9q-8 5-27 23l-61 55v24q0 21 11 31.5t31 10.5h456z" fill="#666666" /></svg>