<?xml version="1.0" standalone="no"?><!DOCTYPE svg PUBLIC "-//W3C//DTD SVG 1.1//EN" "http://www.w3.org/Graphics/SVG/1.1/DTD/svg11.dtd"><svg class="icon" width="200px" height="200.00px" viewBox="0 0 1024 1024" version="1.1" xmlns="http://www.w3.org/2000/svg"><path d="M213 560q-93 0-93-92V156q0-92 93-92h450q93 0 93 92v48h55q93 0 93 92v315q0 92-93 92H361q-93 0-93-92v-51h-55z m55-48V296q1-92 94-92h346v-45q0-23-12-35t-34-12H214q-22 0-34 12t-12 35v307q0 23 12 34.5t34 11.5h54z m48 68l78-67q19-17 39-17t39 17l53 48 133-118q20-18 45-18t44 18l109 103V299q0-23-12-35t-34-12H362q-22 0-34 12t-12 34v282z m161-129q-29 0-49.5-20.5T407 381q0-29 20.5-49.5t49-20.5q28.5 0 49 20.5T546 381q0 29-20.5 49.5T477 451z" fill="#666666" /></svg>