<?xml version="1.0" standalone="no"?><!DOCTYPE svg PUBLIC "-//W3C//DTD SVG 1.1//EN" "http://www.w3.org/Graphics/SVG/1.1/DTD/svg11.dtd"><svg class="icon" width="200px" height="200.00px" viewBox="0 0 1024 1024" version="1.1" xmlns="http://www.w3.org/2000/svg"><path d="M513 0q103 0 192 52 86 50 136 136 52 89 52 192.5T841 572q-50 86-136 137-89 52-192 52t-192-52q-86-51-136-137-52-88-52-191.5T185 188q50-86 136-136Q410 0 513 0z m27 333q0-3-2-5t-5-2h-40q-3 0-5 2t-2 5v231q0 2 2 4.5t5 2.5h40q3 0 5-2.5t2-4.5V333z m-27-61q17 0 29-12t12-29q0-17-12-29t-29-12q-17 0-29 12t-12 29q0 17 12 29t29 12z" fill="#666666" /></svg>