<?xml version="1.0" standalone="no"?><!DOCTYPE svg PUBLIC "-//W3C//DTD SVG 1.1//EN" "http://www.w3.org/Graphics/SVG/1.1/DTD/svg11.dtd"><svg class="icon" width="200px" height="200.00px" viewBox="0 0 1024 1024" version="1.1" xmlns="http://www.w3.org/2000/svg"><path d="M315 175q-55 0-101.5 27.5t-74 74Q112 323 112 378t27.5 101.5q27.5 46.5 74 73.5T315 580h128q13 0 22.5-9t9.5-22.5q0-13.5-9.5-23T443 516H315q-38 0-70-18.5T194.5 447Q176 415 176 377.5t18.5-69.5q18.5-32 50.5-50.5t70-18.5h128q13 0 22.5-9.5T475 207q0-13-9.5-22.5T443 175H315z m298 0q-13 0-22.5 9.5T581 207q0 13 9.5 22.5T613 239h128q38 0 70 18.5t50.5 50.5q18.5 32 18.5 69.5T861.5 447Q843 479 811 497.5T741 516H613q-13 0-22.5 9.5t-9.5 23q0 13.5 9.5 22.5t22.5 9h128q56 0 102.5-27t73.5-73.5Q944 433 944 378t-27-101.5q-27-46.5-74-74T741 175H613zM400 346q-13 0-22.5 9t-9.5 22.5q0 13.5 9.5 23T400 410h256q13 0 22.5-9.5t9.5-23q0-13.5-9.5-22.5t-22.5-9H400z" fill="#666666" /></svg>