<?xml version="1.0" standalone="no"?><!DOCTYPE svg PUBLIC "-//W3C//DTD SVG 1.1//EN" "http://www.w3.org/Graphics/SVG/1.1/DTD/svg11.dtd"><svg class="icon" width="200px" height="200.00px" viewBox="0 0 1024 1024" version="1.1" xmlns="http://www.w3.org/2000/svg"><path d="M513 7q83 0 154 42 70 40 110 110 42 71 42 155 0 73-73 183-52 79-137 169-46 48-81 80l-15 14-16-14q-35-32-81-80-85-90-137-170-73-109-73-182 0-84 42-155 41-70 110-110Q429 7 513 7z m0 438q36 0 67-18.5t49-49q18-30.5 18-67T629 243q-18-31-49-49t-67.5-18q-36.5 0-67 18t-49 49Q378 274 378 310.5t18.5 67q18.5 30.5 49 49T513 445z m0-208q30 0 51.5 21.5t21.5 52q0 30.5-21.5 51.5t-52 21q-30.5 0-51.5-21t-21-51.5q0-30.5 21-52t52-21.5z" fill="#666666" /></svg>