<?xml version="1.0" standalone="no"?><!DOCTYPE svg PUBLIC "-//W3C//DTD SVG 1.1//EN" "http://www.w3.org/Graphics/SVG/1.1/DTD/svg11.dtd"><svg class="icon" width="200px" height="200.00px" viewBox="0 0 1024 1024" version="1.1" xmlns="http://www.w3.org/2000/svg"><path d="M528 746q35-32 81-80 85-90 137-169 73-110 73-183 0-83-42-155-40-69-110-110Q596 7 512.5 7T358 49q-69 41-110 110-42 72-42 155 0 73 73 183 52 79 137 169 46 49 81 80l16 15 15-15zM513 68q67 0 124 33.5t90.5 90.5Q761 249 761 317q0 49-46 125-38 62-102 135-49 57-100 106-52-49-101-106-64-73-101-135-47-76-47-125 0-68 33.5-125t90.5-90.5Q445 68 513 68z m0 367q36 0 67-18t49-49q18-31 18-67t-18-67q-18-31-49-49t-67.5-18q-36.5 0-67.5 18t-49 49q-18 31-18 67.5t18 67q18 30.5 49 48.5t68 18z m0-207q30 0 51.5 21.5T586 301q0 30-21.5 51.5t-52 21.5q-30.5 0-52-21.5T439 301q0-30 21.5-51.5T513 228z" fill="#666666" /></svg>