<?xml version="1.0" standalone="no"?><!DOCTYPE svg PUBLIC "-//W3C//DTD SVG 1.1//EN" "http://www.w3.org/Graphics/SVG/1.1/DTD/svg11.dtd"><svg class="icon" width="200px" height="200.00px" viewBox="0 0 1024 1024" version="1.1" xmlns="http://www.w3.org/2000/svg"><path d="M772.980545 279.906615q22.910506 0 39.346303 16.435797T828.762646 336.684825v373.540856q0 22.910506-16.435798 39.346303T772.980545 766.007782H250.023346q-22.910506 0-39.346303-16.435798T194.241245 710.225681V336.684825q0-23.906615 16.435798-40.342413T250.023346 279.906615h55.782101v-74.708171q0-55.782101 27.891051-102.599222t74.708171-74.708171Q455.22179 0 511.003891 0t103.097276 27.891051Q661.416342 55.782101 689.307393 102.599222t27.891051 102.599222v74.708171h55.782101z m-411.392996 0h298.832684v-74.708171q0-39.844358-19.922179-74.210117t-54.287937-54.785992Q551.844358 55.782101 511.501946 55.782101t-74.708172 20.420234q-34.365759 20.420233-54.785992 54.785992T361.587549 205.198444v74.708171z m411.392996 56.77821H250.023346v373.540856h522.957199V336.684825zM555.828794 560.809339q-3.984436-23.906615-3.984436-22.910506 11.953307-7.968872 18.92607-20.420234t7.968872-27.392996q0-22.910506-16.933853-39.346303T520.964981 434.303502q-23.906615 0-40.840467 16.435798T463.190661 490.085603q0 14.941634 6.972763 27.392996t19.922179 19.424125l-11.953307 72.715953q0 7.968872 5.976653 13.945525t14.941635 6.972763h42.832684q8.964981 0 15.439689-6.474708T563.797665 608.622568l-7.968871-47.813229z" fill="#666666" /></svg>