<?xml version="1.0" standalone="no"?><!DOCTYPE svg PUBLIC "-//W3C//DTD SVG 1.1//EN" "http://www.w3.org/Graphics/SVG/1.1/DTD/svg11.dtd"><svg class="icon" width="200px" height="200.00px" viewBox="0 0 1024 1024" version="1.1" xmlns="http://www.w3.org/2000/svg"><path d="M690.303502 645.478599q11.953307-8.964981 25.898833-3.486381t22.910505 24.404669q5.976654 11.953307 2.988327 25.898833t-14.941634 22.910506q-98.614786 61.758755-217.151751 61.758755-106.583658 0-197.229572-52.793775-88.653696-50.801556-141.447471-137.463035-52.793774-89.649805-52.793774-194.241245 0-43.828794 10.957198-86.661479 9.961089-37.85214 29.883269-80.684824l-45.821012 11.953307q-11.953307 2.988327-24.902724-2.490272t-15.937743-17.929962q-2.988327-12.451362 2.988327-24.902723T93.634241 176.311284l114.552529-40.840467q12.949416-3.984436 25.400779 1.992218t15.439688 17.929961l36.856031 110.568093q2.988327 12.949416-2.988326 25.400779T264.964981 306.801556q-11.953307 2.988327-24.902724-2.988326t-15.937743-17.929962l-3.984436-27.89105q-28.88716 56.77821-28.88716 126.505836 0 85.66537 43.828794 159.377432 42.832685 70.723735 115.548638 112.560312 75.70428 41.836576 163.361868 41.836576 44.824903 0 91.642023-13.945526 43.828794-12.949416 84.669261-38.848249z m245.042802-77.696498q5.976654 11.953307 0.996108 23.40856T918.412451 608.622568l-110.568093 44.824903q-10.957198 5.976654-22.412451 1.494163T768 637.509728l-45.821012-110.568094q-5.976654-11.953307-0.996109-22.910506t17.431907-17.431906Q751.066148 480.124514 762.023346 485.105058t17.929961 17.929961l11.953308 32.871596q2.988327 0 3.984436-1.992218v-1.992218q36.856031-67.735409 36.856031-147.424125 0-86.661479-43.828794-159.377431-41.836576-71.719844-115.548638-112.560312-74.708171-42.832685-163.361868-42.832685-93.634241 0-179.299611 52.793775-11.953307 8.964981-25.898832 6.474708T281.898833 114.552529q-6.972763-11.953307-3.486382-25.898833T293.85214 65.743191Q398.44358 0 513.992218 0q106.583658 0 198.225681 52.793774 88.653696 50.801556 140.451362 137.463035 53.789883 89.649805 53.789883 194.241245 0 98.614786-48.809339 183.284047l36.856032-15.937743q11.953307-5.976654 22.910505-0.996109t17.929962 16.933852z" fill="#666666" /></svg>