<?xml version="1.0" standalone="no"?><!DOCTYPE svg PUBLIC "-//W3C//DTD SVG 1.1//EN" "http://www.w3.org/Graphics/SVG/1.1/DTD/svg11.dtd"><svg class="icon" width="200px" height="200.00px" viewBox="0 0 1024 1024" version="1.1" xmlns="http://www.w3.org/2000/svg"><path d="M135.836735 728.443149q-7.961127-13.931973-7.961128-50.752187V326.40622q0-27.863946 6.965987-44.283771t24.878523-32.34208L439.354713 32.83965q21.8931-16.917396 36.820214-23.883382 17.912536-8.956268 35.327503-8.956268T546.829932 8.956268q13.931973 6.965986 35.825073 23.883382l279.634597 216.940719q18.907677 15.922255 25.376093 32.34208T894.134111 326.40622v351.284742q0 36.820214-7.961128 50.752187L664.25656 508.517007l186.091351-183.105928q4.975705-4.975705 4.975704-10.94655t-4.975704-10.94655L552.800777 74.635569q-15.922255-12.936832-21.8931-15.922255-9.951409-4.975705-19.902818-4.975705t-18.907677 4.975705q-7.961127 3.980564-22.888241 15.922255L172.656948 303.517979q-5.970845 4.975705-5.970845 10.448979t5.970845 11.444121l187.086492 183.105928-223.906705 219.926142z m90.557823 56.723032q-43.7862 0-60.703596-16.917396l303.517979-299.537415q20.897959-21.8931 42.293489-21.8931t43.288629 21.8931l301.527697 298.542274q-19.902818 17.912536-70.655005 17.912537H226.394558z" fill="#666666" /></svg>