<?xml version="1.0" standalone="no"?><!DOCTYPE svg PUBLIC "-//W3C//DTD SVG 1.1//EN" "http://www.w3.org/Graphics/SVG/1.1/DTD/svg11.dtd"><svg class="icon" width="200px" height="200.00px" viewBox="0 0 1024 1024" version="1.1" xmlns="http://www.w3.org/2000/svg"><path d="M240.709056 785.263969q-107.529865 0-107.529865-106.543352V338.373796q0-37.487476 9.371869-57.710983T176.585742 240.709056L441.957611 32.554913q19.73025-16.770713 34.527938-23.6763 17.757225-8.878613 35.514451-8.878613t35.514451 8.878613q14.797688 6.905588 35.514451 23.6763l264.385356 208.154143q25.649326 19.73025 34.527939 39.953757t8.878612 57.710983v340.346821q0 106.543353-107.529865 106.543352H240.709056z m365.996146-306.805395l204.208093-202.235067L553.433526 74.974952q-14.797688-11.83815-21.703276-14.797688-8.878613-5.919075-19.236994-5.919075T492.26975 60.177264q-6.905588 2.959538-21.703276 14.797688L214.073218 275.236994l205.194605 203.22158 22.689788-21.703275q33.541426-33.541426 71.028902-33.541426t71.028901 33.541426l22.689788 21.703275zM185.464355 679.707129q0.986513 13.811175 4.932562 23.676301l192.369942-189.410405-196.315992-194.342967v359.090559l-0.986512 0.986512z m653.07129-351.198458q0-4.932563-0.986512-7.892101L642.219653 513.973025l192.369942 188.423892q3.94605-8.878613 3.94605-23.6763V328.508671z m-53.271676 404.470134h7.8921L554.420039 497.202312q-21.703276-21.703276-41.926783-21.703275T471.552987 497.202312L232.816956 732.978805h552.447013z" fill="#666666" /></svg>