<?xml version="1.0" standalone="no"?><!DOCTYPE svg PUBLIC "-//W3C//DTD SVG 1.1//EN" "http://www.w3.org/Graphics/SVG/1.1/DTD/svg11.dtd"><svg class="icon" width="200px" height="200.00px" viewBox="0 0 1024 1024" version="1.1" xmlns="http://www.w3.org/2000/svg"><path d="M511 321q38 0 64.5 26.5T602 411q0 37-26.5 63.5t-64 26.5q-37.5 0-64-26.5t-26-63.5q0.5-37 26.5-63.5t64-26.5h-1z m0 140q21 0 36-14.5t15-35.5q0-21-15-36t-35.5-15q-20.5 0-35.5 15t-15 36q0 21 15 35.5t36 14.5h-1zM218 321q37 0 63.5 26.5T308 411q0 37-26.5 63.5T218 501q-37 0-63.5-26.5T128 411q0-37 26.5-63.5T218 321z m0 140q21 1 36-14t15-36q0-21-15-36t-36-15q-21 0-36 15t-15 36q0 21 15 35.5t36 14.5z m588-140q38 0 64 26.5t26 63.5q0 37-26 63.5T806.5 501q-37.5 0-64-26.5T716 411q0-37 26.5-63.5T806 321z m0 140q21 0 36-14.5t15-35.5q0-21-15-36t-36-15q-21 0-35.5 15T756 411q0 21 14.5 36t35.5 14z" fill="#666666" /></svg>