<?xml version="1.0" standalone="no"?><!DOCTYPE svg PUBLIC "-//W3C//DTD SVG 1.1//EN" "http://www.w3.org/Graphics/SVG/1.1/DTD/svg11.dtd"><svg class="icon" width="200px" height="200.00px" viewBox="0 0 1024 1024" version="1.1" xmlns="http://www.w3.org/2000/svg"><path d="M512 0q-83 0-154 42-69 41-110 110-41 72-41 155v128q-2 28-23 48l-43 42q-13 16-13 35 0 23 16 38.5t38 15.5h176l1 8q2 40 23 73.5t55.5 53Q472 768 513 768t76-21q35-21 55.5-56t20.5-77h182q19-2 33-16 16-16 16-38.5T880 522l-43-44q-18-21-18-49V296q-3-81-45-150-41-67-109-106Q594 0 513 0h-1z m96 614q0 40-28 68t-68 28q-40 0-68-28t-28-68h192zM513 58q67 0 124 33t90.5 90Q761 238 761 306l1 131q1 24 11 46.5t28 40.5l33 32H191l39-37q17-19 26-42.5t9-48.5V298q2-66 36-121t90-87q56-32 122-32z" fill="#666666" /></svg>