<?xml version="1.0" standalone="no"?><!DOCTYPE svg PUBLIC "-//W3C//DTD SVG 1.1//EN" "http://www.w3.org/Graphics/SVG/1.1/DTD/svg11.dtd"><svg class="icon" width="200px" height="200.00px" viewBox="0 0 1024 1024" version="1.1" xmlns="http://www.w3.org/2000/svg"><path d="M588.849903 768.499025q-22.955166 0-36.927876-17.964912-9.980507-12.974659-19.961013-45.910331l-57.88694-193.621833q-4.990253-18.962963-3.493177-29.94152t11.477583-22.955166L857.325536 54.892788q2.994152-3.992203 2.994152-7.485381t-2.994152-6.487329q-2.994152-2.994152-6.487329-2.994152t-7.48538 2.994152L441.138402 417.185185q-11.976608 10.978558-22.955166 12.475634t-28.94347-4.491228l-198.612086-59.883041q-30.939571-9.980507-43.91423-19.961014-16.966862-12.974659-16.966861-35.929824 0-18.962963 15.968811-33.933724 12.974659-13.97271 38.923976-23.953216L815.407407 9.980507q25.949318-9.980507 43.91423-9.980507t28.444445 10.479532Q898.245614 20.959064 898.245614 38.424951T888.265107 82.838207L647.734893 710.612086q-22.955166 57.88694-58.88499 57.886939z" fill="#666666" /></svg>