<?xml version="1.0" standalone="no"?><!DOCTYPE svg PUBLIC "-//W3C//DTD SVG 1.1//EN" "http://www.w3.org/Graphics/SVG/1.1/DTD/svg11.dtd"><svg class="icon" width="200px" height="200.00px" viewBox="0 0 1024 1024" version="1.1" xmlns="http://www.w3.org/2000/svg"><path d="M751 401.87q9-8 20-8.5t19 7.5q8 8 8 20t-8 20l-266 266q-43 43-99 57-52 14-104.5-1t-92.5-55q-40-40-55-92.5t-1-104.5q15-55 58-98l362-363q33-33 72-44t76.5-0.5q37.5 10.5 66.5 39.5t39 66q10 37-1 76t-44 71l-354 354q-27 28-63 28.5t-63-25.5q-24-25-24-61.5t27-64.5l247-246q8-9 19-9t18.5 7.5q7.5 7.5 7 18t-8.5 18.5l-246 246q-12 13-11.5 27t11 24.5q10.5 10.5 25 11.5t26.5-12l352-352q31-32 34-72t-26-69.5q-29-29.5-69.5-26.5t-72.5 34l-360 360q-34 34-45 75-10 39 1 77t41 68q30 30 68.5 41t77.5 1q41-11 74-45l264-264z" fill="#666666" /></svg>