<?xml version="1.0" standalone="no"?><!DOCTYPE svg PUBLIC "-//W3C//DTD SVG 1.1//EN" "http://www.w3.org/Graphics/SVG/1.1/DTD/svg11.dtd"><svg class="icon" width="200px" height="200.00px" viewBox="0 0 1024 1024" version="1.1" xmlns="http://www.w3.org/2000/svg"><path d="M872 575q13 0 20.5 7.5T900 602q0 12-8.5 20t-19.5 8H763v109q0 13-7.5 20.5t-20 7.5q-12.5 0-20-8.5T708 739V630H598q-12 0-19.5-7.5t-7.5-20q0-12.5 8.5-20T599 575h109V466q0-13 7.5-20.5T735 438q12 0 20 8.5t8 18.5v110h109zM735 219q0 59-29.5 109.5t-79.5 80Q576 438 516 438q-89 0-165 45-75 44-118 118-45 77-45 166h-55q0-84 34-159 33-73 93-127t136-78q-46-29-72.5-78T297 219q0-59 30-109.5t80-80Q457 0 516.5 0T626 29.5q50 29.5 79.5 80T735 219zM516 383q45 0 82.5-22t60-59.5q22.5-37.5 22.5-82T658.5 137q-22.5-38-60-60t-82-22q-44.5 0-82 22t-60 60Q352 175 352 219.5t22.5 82q22.5 37.5 60 59.5t81.5 22z" fill="#666666" /></svg>