<?xml version="1.0" standalone="no"?><!DOCTYPE svg PUBLIC "-//W3C//DTD SVG 1.1//EN" "http://www.w3.org/Graphics/SVG/1.1/DTD/svg11.dtd"><svg class="icon" width="200px" height="200.00px" viewBox="0 0 1024 1024" version="1.1" xmlns="http://www.w3.org/2000/svg"><path d="M512 768q-103 0-193-52-87-52-138-139-53-89-53-192.5T181 191q51-87 138-138Q409 0 512 0t193 53q87 51 138 138 53 90 53 193t-53 193q-51 87-138 139-90 52-193 52z m-1-196q16 0 25-10t9-28V417h124q17 0 27-8.5t10-24q0-15.5-10-24.5t-27-9H545V227q0-17-9-27.5T511.5 189q-15.5 0-24 10.5T479 227v124H355q-18 1-28 9.5t-10 24q0 15.5 10.5 24T355 417h124v118q0 16 8.5 26.5T511 572z" fill="#666666" /></svg>