<?xml version="1.0" standalone="no"?><!DOCTYPE svg PUBLIC "-//W3C//DTD SVG 1.1//EN" "http://www.w3.org/Graphics/SVG/1.1/DTD/svg11.dtd"><svg class="icon" width="200px" height="200.00px" viewBox="0 0 1024 1024" version="1.1" xmlns="http://www.w3.org/2000/svg"><path d="M514 766q-103 0-192-53-87-51-138-138-53-89-53-192t53-192q51-87 137-138Q411 0 513.5 0T706 53q87 51 138 138 53 89 53 192t-53 192q-51 87-138 138-89 53-192 53z m0-64q87 0 161-43 73-42 115-114 43-75 43-162t-43-161q-43-73-115-115-74-43-161.5-43T352 107q-72 42-114 115-43 74-43 161t43 162q42 72 115 114 74 43 161 43z m-1-141q-15 0-23-9.5t-8-25.5V415H365q-16 0-26-8.5t-10-23q0-14.5 9.5-23T365 352h117V234q0-16 8-26t23-10q15 0 23.5 9.5T545 234v118h118q16 0 25.5 8.5t10 23q0.5 14.5-9.5 23t-26 8.5H545v111q0 16-8.5 25.5T513 561z" fill="#666666" /></svg>