<?xml version="1.0" standalone="no"?><!DOCTYPE svg PUBLIC "-//W3C//DTD SVG 1.1//EN" "http://www.w3.org/Graphics/SVG/1.1/DTD/svg11.dtd"><svg class="icon" width="200px" height="200.00px" viewBox="0 0 1024 1024" version="1.1" xmlns="http://www.w3.org/2000/svg"><path d="M513 768q-17 0-29-11.5T473 729V430H182q-16 0-28-12t-12.5-28.5q-0.5-16.5 12-28T182 350h290V50q0-16 12-27.5T512.5 11Q529 11 541 22.5T553 50v299h290q17 0 29 12t12 28.5q0 16.5-12 28.5t-28 12H553v299q0 16-12 27.5T513 768z" fill="#666666" /></svg>