<?xml version="1.0" standalone="no"?><!DOCTYPE svg PUBLIC "-//W3C//DTD SVG 1.1//EN" "http://www.w3.org/Graphics/SVG/1.1/DTD/svg11.dtd"><svg class="icon" width="200px" height="200.00px" viewBox="0 0 1024 1024" version="1.1" xmlns="http://www.w3.org/2000/svg"><path d="M572 747q-18 0-30.5-12.5T529 704V565h-10q-74 0-125 14-55 14-96.5 48T225 720q-9 16-21 22-10 5-24.5 5T154 733.5Q143 720 143 698q0-209 90-320 95-117 286-117h10V123q0-18 12.5-31.5T573 78q12 0 23 7 8 4 26 19l287 269q19 19 19 39.5T909 452L622 723q-15 12-26 18t-24 6z m21-79q3 0 6-3l259-246q4-4 4-7t-4-6L599 157q-4-3-6-3t-3.5 1.5Q588 157 588 159v145q0 12-12 12h-49q-118 0-196 51-68 45-102 128-30 71-34 166 0 4 2 4t4-4q32-70 114-110 85-41 212-41h49q12 0 12 12v141q0 5 5 5z" fill="#666666" /></svg>