<?xml version="1.0" standalone="no"?><!DOCTYPE svg PUBLIC "-//W3C//DTD SVG 1.1//EN" "http://www.w3.org/Graphics/SVG/1.1/DTD/svg11.dtd"><svg class="icon" width="200px" height="200.00px" viewBox="0 0 1024 1024" version="1.1" xmlns="http://www.w3.org/2000/svg"><path d="M512 769q-104 0-194-53-87-51-138-138-53-90-53-193.5T180 192q51-87 138-139Q408 0 511 0t193 53q87 52 139 139 53 90 53 193t-53 193q-51 87-138 138-90 53-193 53zM340 400q0 47 23 87t62.5 63q39.5 23 86 23t85.5-23q39-23 61.5-62.5T682 401q0-10-8-17.5t-18.5-7.5q-10.5 0-18.5 7.5t-8 18.5q0 32-15.5 59t-43 43Q543 520 511 520t-59.5-15.5q-27.5-15.5-43-43t-15.5-60q0-32.5 15.5-59t43-42.5q27.5-16 59.5-16 10 0 14 1l-37 37q-7 6-7 16.5t6.5 17.5q6.5 7 16.5 7t18-7l74-74q7-7 6.5-18t-6.5-18l-74-75q-6-7-17-7t-17.5 7q-6.5 7-6.5 17.5t6 17.5l27 27h-10q-43 0-80.5 22T363 316q-23 39-23 84z" fill="#666666" /></svg>