<?xml version="1.0" standalone="no"?><!DOCTYPE svg PUBLIC "-//W3C//DTD SVG 1.1//EN" "http://www.w3.org/Graphics/SVG/1.1/DTD/svg11.dtd"><svg class="icon" width="200px" height="200.00px" viewBox="0 0 1024 1024" version="1.1" xmlns="http://www.w3.org/2000/svg"><path d="M510 769q-103 0-192-53-87-51-138-138-52-89-52-192t52-192q51-87 138-138Q407 3 510 3t192 53q87 51 138 138 53 89 53 192t-53 192q-51 87-138 138-89 53-192 53z m0-64q87 0 162-43 72-42 114-115 43-74 43-161t-43-161q-43-72-115-114-74-44-161-44t-161 44q-72 42-114 114-43 74-43 161t43 161q42 73 114 115 74 43 161 43zM342 403q0-45 22.5-82.5T424 261q37-22 79-22l10 1-27-27q-6-8-6-17.5t6.5-17q6.5-7.5 17-7T521 179l72 74q6 6 6 17t-6 17l-73 73q-7 7-17 7t-16.5-7q-6.5-7-6.5-17t7-17l36-36q-3-1-13-1-32 0-58.5 15.5t-42 42Q394 373 394 404.5t15.5 58.5q15.5 27 42 42.5t58 15.5q31.5 0 58.5-15.5t42.5-42.5q15.5-27 15.5-59 0-10 7.5-17.5t18-7.5q10.5 0 18 7.5T677 404q0 46-22.5 84.5t-61 61Q555 572 509.5 572t-84-22.5Q387 527 365 488t-22-85h-1z" fill="#666666" /></svg>