<?xml version="1.0" standalone="no"?><!DOCTYPE svg PUBLIC "-//W3C//DTD SVG 1.1//EN" "http://www.w3.org/Graphics/SVG/1.1/DTD/svg11.dtd"><svg class="icon" width="200px" height="200.00px" viewBox="0 0 1024 1024" version="1.1" xmlns="http://www.w3.org/2000/svg"><path d="M880 57.59l-81 80q-59-73-146-109-94-39-194-26-98 14-176 73-81 61-120 155t-26 194q14 98 73 176 61 81 155 120.5t194 25.5q98-13 176-73 81-61 120-155h-65q-41 80-117.5 127t-166.5 46q-86 0-160-44-71-42-113-114-43-74-42.5-160.5t43.5-159.5q43-72 115-114 74-43 160-42 73 0 138 32t110 90l-104 103 231 5-4-230z" fill="#666666" /></svg>