<?xml version="1.0" standalone="no"?><!DOCTYPE svg PUBLIC "-//W3C//DTD SVG 1.1//EN" "http://www.w3.org/Graphics/SVG/1.1/DTD/svg11.dtd"><svg class="icon" width="200px" height="200.00px" viewBox="0 0 1024 1024" version="1.1" xmlns="http://www.w3.org/2000/svg"><path d="M508 766.67q-94 0-175-48-80-46-126-126-48-81-48-175 0-83 38-157 36-71 101-120.5t144-65.5v-48q0-18 10.5-23t25.5 5l109 77q12 9 12 20t-12 18l-110 77q-14 10-24.5 5.5t-10.5-22.5v-50q-64 15-115.5 56T246 290.17q-29 59.5-29 127.5 0 80 40 147 38 66 104 105 68 39 147.5 39t146-39q66.5-39 105.5-105 39-67 39-147 0-72-33-135-32-60-88-100-10-8-13-19.5t3.5-22q6.5-10.5 19-12.5t23.5 6q68 49 106 123 40 75 40 160 0 94-48 175-46 80-126 126-81 48-175 48z" fill="#666666" /></svg>