<?xml version="1.0" standalone="no"?><!DOCTYPE svg PUBLIC "-//W3C//DTD SVG 1.1//EN" "http://www.w3.org/Graphics/SVG/1.1/DTD/svg11.dtd"><svg class="icon" width="200px" height="200.00px" viewBox="0 0 1024 1024" version="1.1" xmlns="http://www.w3.org/2000/svg"><path d="M442 621q-84 0-156-42-70-42-112-112-42-72-42-156t42-157q42-70 112-111Q358 0 442 0t157 43q70 41 111 111 43 73 43 157 0 52-16.5 100T689 499l190 190q13 13 13 32.5t-12.5 33Q867 768 847.5 768T814 754L623 563q-40 28-86 43t-95 15z m0-67q66 0 122-33t89-89q33-56 33-121.5T653 189q-33-56-89-89T442.5 67Q377 67 321 100t-89 89q-33 56-33 121.5T232 432q33 56 89 89t121 33z" fill="#666666" /></svg>