<?xml version="1.0" standalone="no"?><!DOCTYPE svg PUBLIC "-//W3C//DTD SVG 1.1//EN" "http://www.w3.org/Graphics/SVG/1.1/DTD/svg11.dtd"><svg class="icon" width="200px" height="200.00px" viewBox="0 0 1024 1024" version="1.1" xmlns="http://www.w3.org/2000/svg"><path d="M648 242q-28 0-52-16.5T562 182H158q-13 0-22-9.5t-9-22q0-12.5 9-21.5t22-9h404q10-27 33.5-44t53-17q29.5 0 53 17t33.5 44h132q12 0 20.5 9t8.5 21.5q0 12.5-8.5 22T867 182H735q-10 27-34 43.5T649 242h-1zM293 353q10-27 33.5-44t52.5-17q29 0 53 17t34 44h399q13 0 22 9t9 22q0 13-9 21.5t-22 8.5H466q-10 28-34 45t-53 17q-29 0-53-17t-33-45H157q-12 0-21-8.5t-9-21.5q0-13 9-22t21-9h136z m356 356q-30 0-53.5-17T562 648H158q-13 0-22-9t-9-22q0-13 9-22t22-9h404q10-27 33.5-44t53-17q29.5 0 53 17t33.5 44h132q12 0 20.5 9t8.5 22q0 13-8.5 22t-20.5 9H735q-10 27-33.5 44T649 709z" fill="#666666" /></svg>