<?xml version="1.0" standalone="no"?><!DOCTYPE svg PUBLIC "-//W3C//DTD SVG 1.1//EN" "http://www.w3.org/Graphics/SVG/1.1/DTD/svg11.dtd"><svg class="icon" width="200px" height="200.00px" viewBox="0 0 1024 1024" version="1.1" xmlns="http://www.w3.org/2000/svg"><path d="M504 685q-11 0-21.5-5T459 664L304 525q-3-3-8-3h-98q-35 0-52.5-18T128 449V318q0-38 17.5-56t52.5-18h98q5 0 8-3l155-137q15-13 23-18 10-6 22-6 17 0 28 12t11 29v526q0 16-11 27t-28 11z m285-67q-9-6-10.5-17t6.5-22q27-39 42.5-90T843 384.5q0-53.5-15.5-104T785 189q-8-10-6.5-21t11-17.5q9.5-6.5 20-4.5t17.5 12q33 46 51 104.5T896 384q0 63-18 121.5T827 610q-7 10-17.5 12.5T789 618z m-304-2q5 0 5-5V155q0-5-5-5-2 0-5 3L334 285q-6 6-11.5 7.5T310 294H200q-19 0-19 19v140q0 19 19 19h110q14 0 24 9l146 132q3 3 5 3z m173-87q-11-7-12.5-18t6.5-22q14-20 22.5-48t8.5-57q0-29-8.5-57T652 280q-8-11-6.5-22.5T658 239q8-6 18.5-4t18.5 12q19 27 30 63t11 74.5q0 38.5-11 74.5t-30 62q-7 10-18 12t-19-4z" fill="#666666" /></svg>