<?xml version="1.0" standalone="no"?><!DOCTYPE svg PUBLIC "-//W3C//DTD SVG 1.1//EN" "http://www.w3.org/Graphics/SVG/1.1/DTD/svg11.dtd"><svg class="icon" width="200px" height="200.00px" viewBox="0 0 1024 1024" version="1.1" xmlns="http://www.w3.org/2000/svg"><path d="M485 678q-11 0-21.5-5T441 657L300 523q-3-3-8-3h-95q-34 0-51.5-18.5T127 447V323q0-36 18-54.5t52-18.5h95q5 0 8-3l141-133q14-13 23-18t21-5q16 0 27 11.5t11 27.5v511q0 16-10.5 26.5T485 678z m310-65q-9-6-10.5-17t5.5-21q27-38 42-87t15-101.5q0-52.5-15-101.5t-42-88q-7-11-5.5-21.5T795 159q9-6 19.5-4t17.5 11q32 45 49 101.5t17 118q0 61.5-17.5 118.5T832 605q-7 10-17.5 12t-19.5-4z m-128-87q-10-7-11.5-17.5T661 487q14-19 22.5-46t8-55.5q-0.5-28.5-8-55T662 285q-8-11-6.5-22t11.5-18q9-6 19-4t17 12q19 26 29.5 61t10.5 72.5q0 37.5-10.5 72.5T703 519q-7 9-17.5 11t-18.5-4z" fill="#666666" /></svg>