<?xml version="1.0" standalone="no"?><!DOCTYPE svg PUBLIC "-//W3C//DTD SVG 1.1//EN" "http://www.w3.org/Graphics/SVG/1.1/DTD/svg11.dtd"><svg class="icon" width="200px" height="200.00px" viewBox="0 0 1024 1024" version="1.1" xmlns="http://www.w3.org/2000/svg"><path d="M512 0q10 0 17 7t7 17v121q0 11-7 18t-17 7q-10 0-17-7t-7-18V25q0-11 7-18t17-7zM320 51q9-5 18.5-2T353 60l61 106q5 9 2 18.5T404.5 199q-8.5 5-18 2.5T371 190L311 85q-5-9-2.5-19T320 51z m384 0q9 5 11.5 15T713 85l-61 105q-5 9-14.5 11.5T619 199q-9-5-11.5-15t2.5-19l60-105q6-8 15.5-11t18.5 2zM179 192q5-9 15-11.5t19 2.5l105 60q9 6 11.5 15.5t-3 18.5q-5.5 9-15 11.5T293 286l-105-61q-8-5-11-14.5t2-18.5z m666 0q4 9 1.5 18.5T835 225l-105 61q-9 5-18.5 2.5T697 277q-5-9-2.5-18.5T706 243l105-60q9-5 18.5-2.5T845 192z m51 192q0 10-7.5 17t-17.5 7H750q-10 0-17-7t-7-17.5q0-10.5 7-17.5t17-7h121q10 0 17.5 7t7.5 18z m-768 0q0-11 7-18t17-7h121q11 0 18 7t7 17.5q0 10.5-7 17.5t-18 7H152q-10 0-17-7t-7-17z m716 192q-5 9-14.5 11.5T811 585l-105-61q-9-5-11.5-14.5T697 491q5-9 14.5-11.5T730 482l105 60q9 6 11.5 15.5T844 576z m-665 0q-5-9-2-18.5t11-15.5l105-60q9-5 19-2.5t15 11.5q5 9 2.5 18.5T318 524l-105 61q-9 5-19 2.5T179 576z m525 140q-9 5-18.5 2.5T670 707l-60-105q-5-9-2.5-18.5T619 569q9-5 18.5-2.5T652 578l61 105q5 9 2.5 18.5T704 716z m-384 0q-9-5-11.5-14.5T311 683l60-105q6-9 15.5-11.5T405 569q9 5 11.5 14.5T414 602l-61 105q-5 9-14.5 11.5T320 716z m192 52q-10 0-17.5-7.5T487 743V622q0-10 7.5-17t17.5-7q10 0 17 7t7 17v121q0 10-7 17.5t-17 7.5z" fill="#666666" /></svg>