<?xml version="1.0" standalone="no"?><!DOCTYPE svg PUBLIC "-//W3C//DTD SVG 1.1//EN" "http://www.w3.org/Graphics/SVG/1.1/DTD/svg11.dtd"><svg class="icon" width="200px" height="200.00px" viewBox="0 0 1024 1024" version="1.1" xmlns="http://www.w3.org/2000/svg"><path d="M755 686q-2 37-25 59t-59 22H356q-37 0-60-22t-24-59l-24-502h-34q-11 0-18.5-7.5t-7.5-18q0-10.5 7.5-18.5t18.5-8h149V81q0-37 23-59t63-22h128q39 0 62.5 22T663 81v51h150q10 0 17.5 8t7.5 18.5q0 10.5-7.5 18T813 184h-34l-24 502zM418 132h190V84q0-14-9.5-23.5T573 51H453q-16 0-25.5 9.5T418 84v48z m247 583q15 0 25-10t11-25l23-496H301l24 496q1 15 11 25t25 10h304z m-50-60q-9 0-14.5-6.5T595 632l10-362q1-9 6.5-15.5t14-6.5q8.5 0 14.5 6.5t5 15.5l-10 362q0 10-6 16.5t-14 6.5z m-204 0q-8 0-13.5-6.5T392 633l-11-363q0-9 5.5-15.5t14-6.5q8.5 0 14.5 6.5t6 15.5l10 362q1 10-5 16.5t-14 6.5h-1z m123-22q0 9-6 15.5t-14.5 6.5q-8.5 0-14.5-6.5t-7-15.5V270q0-9 6.5-15.5t15-6.5q8.5 0 14.5 6.5t6 15.5v363z" fill="#666666" /></svg>